{"title":"Teenage Mutant Ninja Turtles 2014 DVDrip English Klam","uid":11291847,"size":2097564629,"categoryP":"video","categoryS":"movies","magnet":"?xt=urn:btih:c4f126e4d48b21235c700e3b3cdedc14f3c8ed01&amp;dn=Teenage+Mutant+Ninja+Turtles+2014+DVDrip+English+Klam&amp;tr=udp%3A%2F%2Ftracker.openbittorrent.com%3A80&amp;tr=udp%3A%2F%2Fopen.demonii.com%3A1337&amp;tr=udp%3A%2F%2Ftracker.coppersurfer.tk%3A6969&amp;tr=udp%3A%2F%2Fexodus.desync.com%3A6969","seeders":12,"leechers":1,"uploader":"Klambake","files":-1,"time":1414342741,"description":"With: Megan Fox, Alan Ritchson and Will Arnett\n\nDe stad heeft helden nodig. Duisternis hangt boven New York City als Shredder en zijn kwade Foot Clan een ijzeren greep hebben op alles van de politie tot aan politici. De toekomst is grimmig tot vier broers vanuit de riolen hun lot ontdekken als Teenage Mutant Ninja Turtles. De Turtles moeten werken met onverschrokken reporter April en haar bijdehante cameraman Vern Fenwick om de stad te redden en Shredder's duivelse plan zien te ontrafelen.\n\nWhen a kingpin threatens New York City, a news reporter find a quad of mutants which makes an alliance to unravel Shredder's plan as the Teenage Mutant Ninja Turtles.\n &lt;a href=&quot;\nhttp://www.imdb.com/title/tt1291150&quot; rel=&quot;nofollow&quot; target=&quot;_NEW&quot;&gt;\nhttp://www.imdb.com/title/tt1291150&lt;/a&gt;\t\n\n--------------------- Dutch Friends 4ever ---------------------\n---------------------------------------------------------------\n- Bezoek ook eens mijn vrienden op: &lt;a href=&quot; http://www.Film-Test.nl&quot; rel=&quot;nofollow&quot; target=&quot;_NEW&quot;&gt; http://www.Film-Test.nl&lt;/a&gt; --\n----- voor mijn Nederlandse Sync. ondertitels ---- en meer ----\n------- http://www.Film-Test.nl ---- Over Films en meer -------\n---------------------------------------------------------------\n &lt;a href=&quot;\nhttp://i.imgur.com/AdkSPNx.jpg&quot; rel=&quot;nofollow&quot; target=&quot;_NEW&quot;&gt;\nhttp://i.imgur.com/AdkSPNx.jpg&lt;/a&gt; &lt;a href=&quot;\nhttp://i.imgur.com/wAbzzfQ.jpg&quot; rel=&quot;nofollow&quot; target=&quot;_NEW&quot;&gt;\nhttp://i.imgur.com/wAbzzfQ.jpg&lt;/a&gt; &lt;a href=&quot;\nhttp://i.imgur.com/ymcr621.jpg&quot; rel=&quot;nofollow&quot; target=&quot;_NEW&quot;&gt;\nhttp://i.imgur.com/ymcr621.jpg&lt;/a&gt;\n\nGeneral:\n\nComplete name                            : Teenage Mutant Ninja TurtlesTeenage Mutant Ninja Turtles 2014.avi\nFormat                                   : AVI\nFormat/Info                              : Audio Video Interleave\nFile size                                : 1.95 GiB\nDuration                                 : 1h 41mn\nOverall bit rate                         : 2 755 Kbps\n\nVideo:\n\nFormat                                   : MPEG-4 Visual\nFormat profile                           : Simple@L3\nFormat settings, BVOP                    : No\nFormat settings, QPel                    : No\nFormat settings, GMC                     : No warppoints\nFormat settings, Matrix                  : Default (H.263)\nCodec ID                                 : XVID\nCodec ID/Hint                            : XviD\nDuration                                 : 1h 41mn\nSource duration                          : 1h 41mn\nBit rate                                 : 2 296 Kbps\nWidth                                    : 720 pixels\nHeight                                   : 304 pixels\nDisplay aspect ratio                     : 2.35:1\nFrame rate                               : 25.000 fps\nColor space                              : YUV\nChroma subsampling                       : 4:2:0\nBit depth                                : 8 bits\nScan type                                : Progressive\nCompression mode                         : Lossy\nBits/(Pixel*Frame)                       : 0.420\nStream size                              : 1.63 GiB (83%)\nWriting library                          : XviD 1.1.2 (UTC 2006-11-01)\n\nAudio:\n\nFormat                                   : AC-3\nFormat/Info                              : Audio Coding 3\nMode extension                           : CM (complete main)\nFormat settings, Endianness              : Big\nCodec ID                                 : 2000\nDuration                                 : 1h 41mn\nBit rate mode                            : Constant\nBit rate                                 : 448 Kbps\nChannel(s)                               : 6 channels\nChannel positions                        : Front: L C R, Side: L R, LFE\nSampling rate                            : 48.0 KHz\nBit depth                                : 16 bits\nCompression mode                         : Lossy\nStream size                              : 325 MiB (16%)\nAlignment                                : Aligned on interleaves\nInterleave, duration                     : 32 ms (0.80 video frame)\nInterleave, preload duration             : 512 ms","torrent":{"xt":"urn:btih:c4f126e4d48b21235c700e3b3cdedc14f3c8ed01","amp;dn":"Teenage+Mutant+Ninja+Turtles+2014+DVDrip+English+Klam","amp;tr":["udp%3A%2F%2Ftracker.openbittorrent.com%3A80","udp%3A%2F%2Fopen.demonii.com%3A1337","udp%3A%2F%2Ftracker.coppersurfer.tk%3A6969","udp%3A%2F%2Fexodus.desync.com%3A6969"],"infoHash":"c4f126e4d48b21235c700e3b3cdedc14f3c8ed01","infoHashBuffer":{"type":"Buffer","data":[196,241,38,228,212,139,33,35,92,112,14,59,60,222,220,20,243,200,237,1]},"announce":[],"urlList":[]}}